<?xml version="1.0" encoding="UTF-8" standalone="no"?>
<!DOCTYPE svg PUBLIC "-//W3C//DTD SVG 1.1//EN" "http://www.w3.org/Graphics/SVG/1.1/DTD/svg11.dtd">
<svg version="1.1" xmlns:xl="http://www.w3.org/1999/xlink" xmlns:dc="http://purl.org/dc/elements/1.1/" xmlns="http://www.w3.org/2000/svg" viewBox="54 379 1108 192" width="1108" height="192">
  <defs/>
  <metadata> Produced by OmniGraffle 7.18.3\n2021-03-13 11:31:02 +0000</metadata>
  <g id="Canvas_1" fill-opacity="1" stroke-opacity="1" fill="none" stroke="none" stroke-dasharray="none">
    <title>Canvas 1</title>
    <g id="Canvas_1_Layer_1">
      <title>Layer 1</title>
      <g id="Graphic_138">
        <title>Dreieck (Spitze rechts)</title>
        <path d="M 54 395 L 150 475 L 54 555 Z" fill="#009688" fill-opacity=".9"/>
      </g>
      <g id="Graphic_137">
        <path d="M 70 379 L 150 475 L 70 571 Z" fill="#009688" fill-opacity=".75"/>
      </g>
      <g id="Graphic_136">
        <path d="M 86 379 L 150 475 L 86 571 Z" fill="#009688" fill-opacity=".6"/>
      </g>
      <g id="Graphic_135">
        <path d="M 102 379 L 150 475 L 102 571 Z" fill="#009688" fill-opacity=".45"/>
      </g>
      <g id="Graphic_134">
        <path d="M 118 379 L 150 475 L 118 571 Z" fill="#009688" fill-opacity=".3"/>
      </g>
      <g id="Graphic_133">
        <path d="M 134 379 L 150 475 L 134 571 Z" fill="#009688" fill-opacity=".15"/>
      </g>
      <g id="Graphic_132">
        <title>Dreieck (Spitze rechts)</title>
        <path d="M 246 555 L 150 475 L 246 395 Z" fill="#009688" fill-opacity=".9"/>
      </g>
      <g id="Graphic_131">
        <path d="M 230 571 L 150 475 L 230 379 Z" fill="#009688" fill-opacity=".75"/>
      </g>
      <g id="Graphic_130">
        <path d="M 214 571 L 150 475 L 214 379 Z" fill="#009688" fill-opacity=".6"/>
      </g>
      <g id="Graphic_129">
        <path d="M 198 571 L 150 475 L 198 379 Z" fill="#009688" fill-opacity=".45"/>
      </g>
      <g id="Graphic_128">
        <path d="M 182 571 L 150 475 L 182 379 Z" fill="#009688" fill-opacity=".3"/>
      </g>
      <g id="Graphic_127">
        <path d="M 166 571 L 150 475 L 166 379 Z" fill="#009688" fill-opacity=".15"/>
      </g>
      <g id="Group_147">
        <title>SAMMLUNG</title>
        <g id="Graphic_139">
          <path d="M 363.0293 498.0742 C 363.0293 503.0508 362.1787 507.5322 360.47754 511.51855 C 358.77636 515.5049 356.2881 518.9072 353.0127 521.7256 C 349.7373 524.54396 345.7256 526.71484 340.97754 528.2383 C 336.22947 529.7617 330.78323 530.52344 324.63867 530.52344 C 319.25583 530.52344 314.0635 529.96485 309.06152 528.84766 C 304.05955 527.73046 299.4258 526.0547 295.16016 523.8203 L 295.16016 501.8828 C 297.59767 503.0508 300.06053 504.18066 302.54883 505.27246 C 305.03712 506.36426 307.56346 507.3418 310.12793 508.2051 C 312.6924 509.06836 315.25682 509.7539 317.8213 510.2617 C 320.38576 510.76953 322.9375 511.02344 325.47656 511.02344 C 328.0664 511.02344 330.28808 510.73145 332.1416 510.14746 C 333.99513 509.5635 335.49316 508.751 336.63574 507.70996 C 337.77833 506.66894 338.6162 505.4248 339.1494 503.97754 C 339.6826 502.53027 339.9492 500.94337 339.9492 499.2168 C 339.9492 497.13476 339.5049 495.29395 338.6162 493.69434 C 337.72753 492.0947 336.4834 490.5967 334.8838 489.2002 C 333.28417 487.8037 331.3545 486.4453 329.09473 485.125 C 326.83495 483.8047 324.3086 482.4082 321.51562 480.93555 C 319.17968 479.7168 316.56447 478.24415 313.66992 476.5176 C 310.77538 474.791 308.0459 472.6455 305.48145 470.08105 C 302.91698 467.5166 300.7715 464.41896 299.04492 460.7881 C 297.31835 457.1572 296.45508 452.80276 296.45508 447.7246 C 296.45508 442.748 297.28027 438.292 298.93066 434.35645 C 300.58106 430.4209 302.92967 427.09474 305.97656 424.37793 C 309.02345 421.6611 312.71775 419.5918 317.05957 418.1699 C 321.4014 416.74804 326.26364 416.0371 331.6465 416.0371 C 334.3379 416.0371 336.9658 416.21484 339.53027 416.5703 C 342.09474 416.9258 344.63378 417.4336 347.14746 418.09375 C 349.66115 418.7539 352.1875 419.5664 354.72656 420.53125 C 357.26564 421.4961 359.88085 422.6133 362.57227 423.8828 L 354.95508 442.24023 C 352.6699 441.1738 350.5371 440.2344 348.55664 439.4219 C 346.57616 438.60937 344.6465 437.92383 342.76758 437.36523 C 340.88866 436.80664 339.04786 436.3877 337.2451 436.1084 C 335.44237 435.8291 333.62696 435.68945 331.79883 435.68945 C 327.83787 435.68945 324.80372 436.74315 322.6963 438.8506 C 320.58886 440.958 319.53516 443.76365 319.53516 447.2676 C 319.53516 449.1465 319.85254 450.80956 320.4873 452.25684 C 321.12207 453.7041 322.1377 455.0625 323.53418 456.33203 C 324.93067 457.60157 326.7334 458.8965 328.9424 460.2168 C 331.15138 461.5371 333.83006 463.03515 336.9785 464.71094 C 340.78713 466.7422 344.291 468.8115 347.49023 470.91895 C 350.68947 473.0264 353.44432 475.3623 355.7549 477.92676 C 358.06544 480.4912 359.85546 483.3984 361.125 486.64844 C 362.39454 489.89845 363.0293 493.707 363.0293 498.0742 Z" fill="#009688"/>
        </g>
        <g id="Graphic_140">
          <path d="M 447.2754 529 L 439.6582 502.4922 L 401.2676 502.4922 L 393.5742 529 L 369.7324 529 L 405.91406 417.1797 L 434.7832 417.1797 L 471.1172 529 Z M 434.17383 482.6875 L 427.01367 458.3125 C 426.709 457.39843 426.25196 455.9004 425.6426 453.81836 C 425.0332 451.7363 424.38575 449.4385 423.7002 446.9248 C 423.01465 444.4111 422.3672 441.8848 421.7578 439.3457 C 421.14843 436.80663 420.7168 434.64845 420.4629 432.8711 C 420.25976 433.9883 419.99317 435.3086 419.6631 436.83203 C 419.333 438.3555 418.95215 439.96776 418.5205 441.66895 C 418.08887 443.3701 417.64453 445.084 417.1875 446.81055 C 416.73047 448.5371 416.29883 450.1621 415.8926 451.68555 C 415.48633 453.209 415.11817 454.5547 414.7881 455.72266 C 414.458 456.89063 414.2168 457.7539 414.06445 458.3125 L 406.98047 482.6875 Z" fill="#009688"/>
        </g>
        <g id="Graphic_141">
          <path d="M 529.9219 529 L 505.4707 441.63086 L 504.78516 441.63086 C 505.08985 446.30276 505.34375 450.82224 505.5469 455.18945 C 505.64844 457.06837 505.7373 458.99804 505.8135 460.9785 C 505.88965 462.959 505.9658 464.91405 506.042 466.84375 C 506.11816 468.77345 506.16895 470.62694 506.19434 472.4043 C 506.2197 474.18165 506.2324 475.78124 506.2324 477.2031 L 506.2324 529 L 485.1328 529 L 485.1328 417.6367 L 517.27734 417.6367 L 541.34766 502.7969 L 541.8047 502.7969 L 567.39844 417.6367 L 599.543 417.6367 L 599.543 529 L 577.5293 529 L 577.5293 476.28906 C 577.5293 474.96874 577.542 473.4707 577.5674 471.7949 C 577.5928 470.11913 577.63086 468.3418 577.68164 466.4629 C 577.7324 464.584 577.7959 462.6797 577.8721 460.75 C 577.94824 458.8203 578.0117 456.9414 578.0625 455.1133 C 578.2656 450.84763 578.44336 446.4043 578.5957 441.7832 L 577.9863 441.7832 L 551.63086 529 Z" fill="#009688"/>
        </g>
        <g id="Graphic_142">
          <path d="M 672.3633 529 L 647.9121 441.63086 L 647.2266 441.63086 C 647.53125 446.30276 647.78516 450.82224 647.9883 455.18945 C 648.08984 457.06837 648.1787 458.99804 648.2549 460.9785 C 648.33106 462.959 648.4072 464.91405 648.4834 466.84375 C 648.5596 468.77345 648.61035 470.62694 648.63574 472.4043 C 648.6611 474.18165 648.6738 475.78124 648.6738 477.2031 L 648.6738 529 L 627.5742 529 L 627.5742 417.6367 L 659.71875 417.6367 L 683.7891 502.7969 L 684.2461 502.7969 L 709.83984 417.6367 L 741.9844 417.6367 L 741.9844 529 L 719.9707 529 L 719.9707 476.28906 C 719.9707 474.96874 719.9834 473.4707 720.0088 471.7949 C 720.0342 470.11913 720.0723 468.3418 720.12305 466.4629 C 720.1738 464.584 720.2373 462.6797 720.3135 460.75 C 720.38965 458.8203 720.4531 456.9414 720.5039 455.1133 C 720.707 450.84763 720.8848 446.4043 721.0371 441.7832 L 720.4277 441.7832 L 694.0723 529 Z" fill="#009688"/>
        </g>
        <g id="Graphic_143">
          <path d="M 771.1582 529 L 771.1582 417.6367 L 785.3262 417.6367 L 785.3262 516.35547 L 828.9727 516.35547 L 828.9727 529 Z" fill="#009688"/>
        </g>
        <g id="Graphic_144">
          <path d="M 925.9395 417.48438 L 925.9395 489.6953 C 925.9395 495.4844 925.1016 500.86716 923.4258 505.84375 C 921.75 510.82034 919.2236 515.1367 915.8467 518.79297 C 912.4697 522.44924 908.2295 525.31835 903.126 527.4004 C 898.0224 529.48243 892.0176 530.52344 885.1113 530.52344 C 878.6113 530.52344 872.8731 529.5459 867.8965 527.5908 C 862.9199 525.63573 858.7432 522.8555 855.3662 519.25 C 851.9892 515.6445 849.4375 511.31545 847.7109 506.2627 C 845.9844 501.20994 845.1211 495.58597 845.1211 489.3906 L 845.1211 417.6367 L 859.3652 417.6367 L 859.3652 490.15234 C 859.3652 499.0391 861.5615 505.9199 865.9541 510.7949 C 870.3467 515.66995 876.9863 518.1074 885.873 518.1074 C 890.3926 518.1074 894.2773 517.4219 897.5273 516.0508 C 900.7774 514.6797 903.4433 512.75 905.5254 510.2617 C 907.6074 507.7734 909.1562 504.80275 910.1719 501.3496 C 911.1875 497.89647 911.7207 494.1133 911.7715 490 L 911.7715 417.48438 Z" fill="#009688"/>
        </g>
        <g id="Graphic_145">
          <path d="M 1038.5977 529 L 1022.2207 529 L 967.4531 436.83203 L 966.8437 436.83203 C 967.1484 440.7422 967.4023 444.62693 967.6055 448.48633 C 967.8086 451.7871 967.9736 455.2402 968.1006 458.8457 C 968.2275 462.4512 968.291 465.70116 968.291 468.5957 L 968.291 529 L 955.1895 529 L 955.1895 417.6367 L 971.4141 417.6367 L 1025.9531 509.34766 L 1026.4863 509.34766 C 1026.334 505.48826 1026.1563 501.6797 1025.9531 497.9219 C 1025.9023 496.29687 1025.8389 494.6338 1025.7627 492.9326 C 1025.6865 491.23144 1025.6104 489.5303 1025.5342 487.8291 C 1025.458 486.1279 1025.4072 484.49024 1025.3818 482.916 C 1025.3564 481.3418 1025.3438 479.89454 1025.3438 478.5742 L 1025.3438 417.6367 L 1038.5977 417.6367 Z" fill="#009688"/>
        </g>
        <g id="Graphic_146">
          <path d="M 1113.3223 470.1953 L 1150.1895 470.1953 L 1150.1895 524.81055 C 1147.3965 525.7246 1144.5781 526.5371 1141.7344 527.24805 C 1138.8906 527.959 1135.9707 528.55566 1132.9746 529.0381 C 1129.9785 529.5205 1126.8301 529.8887 1123.5293 530.1426 C 1120.2285 530.3965 1116.6738 530.52344 1112.8652 530.52344 C 1104.8925 530.52344 1097.834 529.19044 1091.6895 526.5244 C 1085.5449 523.8584 1080.3653 520.0498 1076.1504 515.09863 C 1071.9355 510.14744 1068.7363 504.1299 1066.5527 497.0459 C 1064.3691 489.9619 1063.2773 482.002 1063.2773 473.166 C 1063.2773 464.4316 1064.4834 456.5352 1066.8955 449.47656 C 1069.3076 442.41793 1072.8242 436.4131 1077.4453 431.4619 C 1082.0664 426.5107 1087.7666 422.70216 1094.5459 420.03613 C 1101.3252 417.3701 1109.0566 416.0371 1117.7402 416.0371 C 1123.377 416.0371 1128.7851 416.5957 1133.9648 417.7129 C 1139.1446 418.8301 1143.9687 420.45507 1148.4375 422.5879 L 1142.9531 434.92773 C 1141.125 434.06445 1139.1572 433.25196 1137.0498 432.49023 C 1134.9424 431.7285 1132.7715 431.05567 1130.5371 430.4717 C 1128.3027 429.8877 1126.0049 429.41797 1123.6436 429.0625 C 1121.2822 428.70703 1118.9336 428.5293 1116.5977 428.5293 C 1110.4023 428.5293 1104.918 429.5576 1100.1445 431.61426 C 1095.3711 433.6709 1091.3721 436.6289 1088.1475 440.4883 C 1084.9228 444.3477 1082.4727 449.0449 1080.7969 454.5801 C 1079.1211 460.11526 1078.2832 466.3613 1078.2832 473.31836 C 1078.2832 479.91995 1078.9814 485.96286 1080.3779 491.44727 C 1081.7744 496.93167 1083.9961 501.6543 1087.043 505.61523 C 1090.0899 509.5762 1094.0254 512.6484 1098.8496 514.83203 C 1103.6739 517.01564 1109.4882 518.1074 1116.293 518.1074 C 1118.5274 518.1074 1120.5713 518.04395 1122.4248 517.917 C 1124.2783 517.79004 1125.9922 517.625 1127.5664 517.4219 C 1129.1406 517.21875 1130.626 516.97754 1132.0225 516.69824 C 1133.419 516.41894 1134.7773 516.15235 1136.0977 515.89844 L 1136.0977 482.6875 L 1113.3223 482.6875 Z" fill="#009688"/>
        </g>
      </g>
    </g>
  </g>
</svg>
